<svg xmlns="http://www.w3.org/2000/svg" xmlns:xlink="http://www.w3.org/1999/xlink" aria-hidden="true" role="img" class="iconify iconify--simple-line-icons" width="36.58" height="32" preserveAspectRatio="xMidYMid meet" viewBox="0 0 1024 896"><path d="M684 95q80 0 135 56q62-12 116-43q-21 64-80 98q55-6 105-28q-12 18-26.5 34.5t-31 31T868 271q1 12 1 23q0 59-15.5 119t-45 117t-75 106t-102 86t-130 58T346 801q-153 0-282-80q11 1 21.5 2t22.5 1q128 0 228-77q-60-1-107-35.5T164 523q6 1 11.5 2t11.5 1.5t12 .5q25 0 48-7q-63-12-105-61t-42-114v-2q39 21 83 22q-25-16-43-38.5t-28.5-51T101 217q0-24 6.5-47t18.5-43q69 83 167.5 132T505 314q-5-20-5-41q0-74 54-126t130-52zm276 83zM684 31q-93 0-163 60.5T439 241Q278 209 175 86q-19-23-49-23l-5 1q-33 2-50 30q-34 57-34 123q0 43 15 83q-16 19-16 43v2q0 95 66 165q-2 8-1.5 16.5T103 543q22 65 74 109q-17 4-34.5 6t-34.5 2q-20 0-37-2l-7-1q-21 0-37.5 12T3 700q-7 21 .5 42.5T30 775q144 90 316 90q106 0 200-31.5T709 747t119.5-126.5t77-153T933 302q45-37 78-85q7-8 10-18t3-21q0-33-27-52q3-13 2-25t-7-23.5T976 58q-18-14-41-14q-4 0-8 .5t-8 1.5t-8 2.5t-8 3.5q-31 19-67 29q-68-50-152-50z" fill="currentColor"></path></svg>